<?xml version="1.0" encoding="utf-8"?>
<!-- Generator: Adobe Illustrator 24.1.2, SVG Export Plug-In . SVG Version: 6.00 Build 0)  -->
<svg version="1.1" xmlns="http://www.w3.org/2000/svg" xmlns:xlink="http://www.w3.org/1999/xlink" x="0px" y="0px"
	 viewBox="0 0 1457 355" style="enable-background:new 0 0 1457 355;" xml:space="preserve">
<style type="text/css">
	.st0{fill:#212121;}
	.st1{fill:#FFFFFF;}
	.st2{fill:#1BC263;}
</style>
<g id="Layer_1">
</g>
<g id="Layer_2">
</g>
<g id="Layer_3">
</g>
<g id="Layer_4">
	<g>
		<g>
			<path class="st0" d="M479.2,225.1h-71l-13.1,34.3h-32l60.4-157.9h40.1l60.7,157.9h-32.2L479.2,225.1z M468.9,197.8L443.6,131
				l-25.3,66.7H468.9z"/>
			<path class="st0" d="M635.5,145.2v114.1h-29.8v-14.4c-7.7,10.1-20.1,17.6-36.5,17.6c-30,0-45.1-20.1-45.1-50.7v-66.5h29.8v60.9
				c0,17.4,7.9,28.6,24.4,28.6c16.9,0,27.5-13.1,27.5-33.4v-56.1H635.5z"/>
			<path class="st0" d="M847,192.6v66.7h-29.8v-61.1c0-17.4-7.9-28.4-24.4-28.4c-16.7,0-27.5,13.1-27.5,33.1v56.4h-29.8V101.5h29.8
				v58.2c7.9-10.1,20.3-17.6,36.8-17.6C831.9,142.1,847,162.2,847,192.6z"/>
			<path class="st0" d="M855.7,202.3c0-34.3,25.9-60.2,61.1-60.2s60.9,25.9,60.9,60.2c0,34.1-25.7,60.2-60.9,60.2
				S855.7,236.3,855.7,202.3z M948.9,202.3c0-18.9-13.1-33.1-32-33.1c-19.2,0-32,14.2-32,33.1s12.9,33.1,32,33.1
				C935.8,235.4,948.9,221.2,948.9,202.3z"/>
			<path class="st0" d="M1168,191.5v67.9h-29.8v-61.6c0-17.1-6.3-28-21.9-28c-16,0-24.1,12-24.1,31.3v58.2h-30v-61.6
				c0-16.9-6.1-28-21.4-28c-16,0-24.6,12.2-24.6,32.2v57.3h-29.8V145.2h29.8v13.5c7.4-9.7,18.7-16.7,33.8-16.7
				c16,0,27.3,6.3,34.3,17.1c7.4-9.5,20.3-17.1,38.6-17.1C1150.2,142.1,1168,159.7,1168,191.5z"/>
			<path class="st0" d="M1176.8,111.6c0-9.5,7.9-17.1,17.8-17.1c9.9,0,17.8,7.7,17.8,17.1c0,9.9-7.9,17.6-17.8,17.6
				C1184.7,129.2,1176.8,121.6,1176.8,111.6z M1179.3,145.2h30v114.1h-30V145.2z"/>
			<path class="st0" d="M1323.1,234.5v24.8h-101.9v-18.9l60.4-70.6h-59.1v-24.6h98.5v18.9l-60.2,70.4H1323.1z"/>
			<path class="st0" d="M1324.9,202.3c0-34.1,23.9-60.2,59.8-60.2c37.4,0,58.9,25.9,58.9,58.6c0,3.6,0,7-0.7,10.6h-88.6
				c2,14.7,12.4,25.9,33.1,25.9c14.4,0,23.2-6.5,27.7-15.1l26.8,7.9c-6.5,14.9-25,32.5-55,32.5
				C1350.4,262.5,1324.9,238.4,1324.9,202.3z M1414.4,192.6c-1.4-14-12.2-25.3-30-25.3c-17.4,0-28.6,12.2-30.2,25.3H1414.4z"/>
			<path class="st0" d="M726.8,171.4v-26.2h-33.4v-43.7h-30v43.7h-19.2v26.2h19.2v47.1c0,24.6,12,40.8,38.1,40.8h23.1V233h-17.3
				c-9.5,0-14-5.2-14-14.4v-47.1H726.8z"/>
		</g>
		<g>
			<path class="st2" d="M213,95.4h-37c-0.5,1.9-1.5,3.7-2.8,5.1l25.5,44.1c0.5-0.1,0.9-0.1,1.4-0.1c5.1,0,9.3,4.2,9.3,9.3
				c0,2.2-0.8,4.2-2,5.8l28.7,49.5c1.4-0.4,2.9-0.7,4.4-0.7c1.4,0,2.8,0.2,4.1,0.6l17-29.5L213,95.4"/>
			<path class="st2" d="M167.7,6.4L120,88.6h33.8c1.6-4.5,5.9-7.7,11-7.7c5.1,0,9.3,3.2,11,7.7H310L167.7,6.4"/>
			<path class="st2" d="M193.2,159.9L119.2,187c-0.1,5-4.2,9.1-9.3,9.1c-0.5,0-0.9,0-1.4-0.1l-12.4,21.5c1.1,1.6,1.7,3.4,1.7,5.4
				c0,2.2-0.7,4.1-1.9,5.8l20.3,35l96.9,0.1l17.4-30.2c-2.8-2.7-4.6-6.4-4.6-10.6c0-4.1,1.7-7.7,4.3-10.4l-28.7-49.6
				c-0.5,0.1-0.9,0.1-1.4,0.1C197.4,163,194.9,161.8,193.2,159.9"/>
			<path class="st2" d="M153.4,95.4H116l-48.7,83.9L87,213.2c0.4,0,0.7-0.1,1.1-0.1c0.9,0,1.7,0.1,2.5,0.3l12-20.9
				c-1.3-1.6-2-3.6-2-5.8c0-5.1,4.2-9.3,9.3-9.3c0.5,0,0.9,0,1.4,0.1l44.6-77.5C154.7,98.7,153.9,97.1,153.4,95.4"/>
			<path class="st2" d="M161.6,103.7l-44.1,76.6l73.4-26.8c0.1-2.1,0.8-4,2-5.6l-25.5-44c-0.9,0.2-1.7,0.3-2.6,0.3
				C163.6,104.2,162.6,104,161.6,103.7"/>
			<polyline class="st2" points="316,95.4 220.9,95.4 316,259.5 316,95.4 			"/>
			<path class="st2" d="M265.6,186.2l-15,26.1c2.8,2.7,4.6,6.4,4.6,10.6c0,8.1-6.5,14.6-14.6,14.6c-1.4,0-2.8-0.2-4.1-0.6
				l-65.4,113.5l142.1-82L265.6,186.2"/>
			<polyline class="st2" points="158.8,8.1 15.9,90.6 63.4,172.5 158.8,8.1 			"/>
			<polyline class="st2" points="19.9,270.3 162,352.4 209.2,270.4 19.9,270.3 			"/>
			<path class="st2" d="M13.5,100v163.5l94.9,0.1l-18.1-31.3c-0.7,0.2-1.4,0.2-2.1,0.2c-5.4,0-9.7-4.4-9.7-9.7c0-2.5,1-4.8,2.5-6.5
				L13.5,100"/>
		</g>
	</g>
</g>
</svg>
