<svg id="Layer_1" data-name="Layer 1" xmlns="http://www.w3.org/2000/svg" xmlns:xlink="http://www.w3.org/1999/xlink" viewBox="0 0 625 60"><defs><style>.cls-1{fill:url(#New_Gradient_Swatch_copy_6);}.cls-2{fill:url(#New_Gradient_Swatch_copy_6-2);}.cls-3{fill:url(#New_Gradient_Swatch_copy_6-5);}.cls-4{fill:url(#New_Gradient_Swatch_copy_6-6);}</style><linearGradient id="New_Gradient_Swatch_copy_6" x1="-17.78" y1="30" x2="623.89" y2="30" gradientUnits="userSpaceOnUse"><stop offset="0.17" stop-color="#e5231a"/><stop offset="0.81" stop-color="#29ace2"/></linearGradient><linearGradient id="New_Gradient_Swatch_copy_6-2" x1="-17.78" y1="29.96" x2="623.89" y2="29.96" xlink:href="#New_Gradient_Swatch_copy_6"/><linearGradient id="New_Gradient_Swatch_copy_6-5" x1="-17.78" y1="30.12" x2="623.89" y2="30.12" xlink:href="#New_Gradient_Swatch_copy_6"/><linearGradient id="New_Gradient_Swatch_copy_6-6" x1="-17.78" y1="30.04" x2="623.89" y2="30.04" xlink:href="#New_Gradient_Swatch_copy_6"/></defs><title>Color1 Cyber Armor Horizontal copy</title><path class="cls-1" d="M9,57.39a20.57,20.57,0,0,0,9.62,2.16,20.37,20.37,0,0,0,9.53-2.16,15.63,15.63,0,0,0,6.46-6.12,17.93,17.93,0,0,0,2.29-9.1,1,1,0,0,0-1.15-1.11h0L34.92,41a1.09,1.09,0,0,0-1.19,1.19v.16A13.52,13.52,0,0,1,29.57,52.6a15.36,15.36,0,0,1-10.93,3.92c-4.55,0-8.25-1.32-11-3.92A13.55,13.55,0,0,1,3.47,42.33V17.59A13.43,13.43,0,0,1,7.62,7.36c2.77-2.58,6.47-3.88,11-3.88s8.23,1.3,11,3.88a13.48,13.48,0,0,1,4.12,10.23v.24a1.05,1.05,0,0,0,1.19,1.11h.81a1.12,1.12,0,0,0,1.19-1.27,17.54,17.54,0,0,0-2.29-9,15.73,15.73,0,0,0-6.46-6.08A20.37,20.37,0,0,0,18.64.45,20.57,20.57,0,0,0,9,2.61,15.71,15.71,0,0,0,2.57,8.69a17.54,17.54,0,0,0-2.29,9V42.09a18.23,18.23,0,0,0,2.28,9.14A15.66,15.66,0,0,0,9,57.39Z"/><path class="cls-2" d="M95,1.1h-.73a1.56,1.56,0,0,0-1.3.75L77.3,28.25,61.57,1.83a1.55,1.55,0,0,0-1.28-.73h-.73c-1,0-1.11.66-1.11.86a1.55,1.55,0,0,0,.22.68l17,28.66a.67.67,0,0,1,0,.21V57.63a1.09,1.09,0,0,0,1.18,1.19h.82a1.1,1.1,0,0,0,1.19-1.19V31.51c0-.16,0-.21,0-.22l17-28.64A1,1,0,0,0,96,1.57,1,1,0,0,0,95,1.1Z"/><path class="cls-2" d="M218.15,58.82a1.1,1.1,0,0,0,1.19-1.19V57a1.09,1.09,0,0,0-1.19-1.19H186.38V31.39h22.9a1.09,1.09,0,0,0,1.19-1.19v-.65a1.1,1.1,0,0,0-1.19-1.19h-22.9V4.13h31.77a1.1,1.1,0,0,0,1.19-1.19V2.29a1.09,1.09,0,0,0-1.19-1.19H184.37a1.09,1.09,0,0,0-1.18,1.19V57.63a1.08,1.08,0,0,0,1.18,1.19Z"/><path class="cls-2" d="M120.32,58.82h18.74c4.8,0,8.72-1.43,11.65-4.26s4.43-6.64,4.43-11.33a15.77,15.77,0,0,0-2.55-9A14.2,14.2,0,0,0,145.94,29a14,14,0,0,0,6.24-4.91A13.88,13.88,0,0,0,154.57,16a14.08,14.08,0,0,0-4.39-10.81c-2.91-2.69-6.82-4.05-11.61-4.05H120.34a1.09,1.09,0,0,0-1.19,1.19V45.93a1.08,1.08,0,0,0,1.19,1.19h.81a1.09,1.09,0,0,0,1.19-1.19V4.13h16.23a13.2,13.2,0,0,1,9.31,3.27,11.33,11.33,0,0,1,3.5,8.64,10.65,10.65,0,0,1-3.5,8.27,13.39,13.39,0,0,1-9.15,3.15h-9.19a1.05,1.05,0,0,0-1.14,1.14v.76a1.05,1.05,0,0,0,1.14,1.14h9.11a13.5,13.5,0,0,1,9.67,3.44,12.09,12.09,0,0,1,3.63,9.2,12.25,12.25,0,0,1-3.51,9.14,12.93,12.93,0,0,1-9.38,3.43H120.32a1.07,1.07,0,0,0-1.17,1.16v.79A1.08,1.08,0,0,0,120.32,58.82Z"/><path class="cls-3" d="M247.35,59h.82a1.09,1.09,0,0,0,1.18-1.19V4.29h17.69a11.49,11.49,0,0,1,8.56,3.35,12.13,12.13,0,0,1,3.27,8.81,12,12,0,0,1-3.27,8.73,11.49,11.49,0,0,1-8.56,3.35H256.52a1,1,0,0,0-1.11,1.1v.73a1,1,0,0,0,1.11,1.11h9.62v0h.5l13,26.68A1.31,1.31,0,0,0,281,59h.74a.9.9,0,0,0,1-.94,1.26,1.26,0,0,0-.12-.57L269.8,31.21a13.73,13.73,0,0,0,8.93-4.71,15.14,15.14,0,0,0,3.34-10,15,15,0,0,0-4.14-11,14.62,14.62,0,0,0-10.88-4.22h-19.7a1.1,1.1,0,0,0-1.19,1.19V57.79A1.08,1.08,0,0,0,247.35,59ZM269.7,31.25s0,0,0,0h0S269.7,31.24,269.7,31.25Z"/><path class="cls-4" d="M496.29,1.18h-1a1.56,1.56,0,0,0-1.29.74L477.24,28.1,460.29,1.91A1.55,1.55,0,0,0,459,1.18h-1a1.09,1.09,0,0,0-1.19,1.19V57.71A1.08,1.08,0,0,0,458,58.9h.81A1.09,1.09,0,0,0,460,57.71L460,7.25,475.72,31.4a1.52,1.52,0,0,0,1.28.72h.49a1.55,1.55,0,0,0,1.29-.74l15.5-24.21V57.71a1.09,1.09,0,0,0,1.19,1.19h.82a1.09,1.09,0,0,0,1.19-1.19V2.37A1.1,1.1,0,0,0,496.29,1.18Zm-19.06,27Z"/><path class="cls-1" d="M551,2.81A20.44,20.44,0,0,0,541.24.53a20,20,0,0,0-9.66,2.28A16.3,16.3,0,0,0,525,9.31a19.55,19.55,0,0,0-2.33,9.58V41.27a19.05,19.05,0,0,0,2.33,9.5,16.42,16.42,0,0,0,6.54,6.42,20,20,0,0,0,9.66,2.28A20.44,20.44,0,0,0,551,57.19a16.33,16.33,0,0,0,6.58-6.42,19.07,19.07,0,0,0,2.32-9.5V18.89a19.57,19.57,0,0,0-2.32-9.58A16.21,16.21,0,0,0,551,2.81Zm5.71,16V41.35a14.79,14.79,0,0,1-4.24,11c-2.82,2.76-6.6,4.16-11.25,4.16s-8.34-1.4-11.13-4.16a14.85,14.85,0,0,1-4.2-11V18.81a15,15,0,0,1,4.2-11c2.79-2.79,6.53-4.2,11.13-4.2s8.43,1.41,11.25,4.2A14.91,14.91,0,0,1,556.73,18.81Z"/><path class="cls-4" d="M357.59,2.09h0a1.31,1.31,0,0,0-1.32-.9h-1.14a1.34,1.34,0,0,0-1.34.91L335.55,57.53a1.11,1.11,0,0,0,.11,1,1.05,1.05,0,0,0,.9.36h.81a1.33,1.33,0,0,0,1.34-.91l3.74-11.49.81-2.83L355.68,5.83l12.43,37.84L372.83,58a1.34,1.34,0,0,0,1.33.89h.73c1,0,1.11-.72,1.1-1l-.09-.36Z"/><path class="cls-4" d="M608.8,31.13a13.73,13.73,0,0,0,8.93-4.71,15.14,15.14,0,0,0,3.34-10,15,15,0,0,0-4.14-11,14.62,14.62,0,0,0-10.88-4.22h-19.7a1.1,1.1,0,0,0-1.19,1.19V57.71a1.08,1.08,0,0,0,1.19,1.19h.82a1.09,1.09,0,0,0,1.18-1.19V4.21h17.69a11.49,11.49,0,0,1,8.56,3.35,12.13,12.13,0,0,1,3.27,8.81,12,12,0,0,1-3.27,8.73,11.49,11.49,0,0,1-8.56,3.35H595.52a1,1,0,0,0-1.11,1.1v.73a1,1,0,0,0,1.11,1.11h9.62v0h.5l13,26.67a1.31,1.31,0,0,0,1.32.8h.74a.9.9,0,0,0,1-.94,1.34,1.34,0,0,0-.12-.58Zm-.09,0s0,0,0,0,0,0,0,0Z"/><path class="cls-4" d="M421.05,31.13A13.73,13.73,0,0,0,430,26.42a15.19,15.19,0,0,0,3.34-10,15,15,0,0,0-4.14-11A14.62,14.62,0,0,0,418.3,1.18H398.6a1.1,1.1,0,0,0-1.19,1.19V57.71a1.08,1.08,0,0,0,1.19,1.19h.81a1.09,1.09,0,0,0,1.19-1.19V4.21h17.7a11.49,11.49,0,0,1,8.56,3.35,12.13,12.13,0,0,1,3.27,8.81,12,12,0,0,1-3.27,8.73,11.49,11.49,0,0,1-8.56,3.35H407.77a1,1,0,0,0-1.11,1.1v.73a1,1,0,0,0,1.11,1.11h9.62v0h.5l13,26.67a1.31,1.31,0,0,0,1.32.8h.73a.9.9,0,0,0,1-.94,1.34,1.34,0,0,0-.12-.58Zm-.09,0s0,0,0,0,0,0,0,0Z"/></svg>