<svg xmlns="http://www.w3.org/2000/svg" width="145" height="39" fill="none">
  <path xmlns="http://www.w3.org/2000/svg" fill="#2BCC96" d="M142.5 29.72c1.38 0 2.5-1.15 2.5-2.57a2.54 2.54 0 00-2.5-2.57 2.54 2.54 0 00-2.5 2.57 2.54 2.54 0 002.5 2.57z"/>
  <path xmlns="http://www.w3.org/2000/svg" fill="#2BCC96" fill-rule="evenodd" d="M37.78 16.4A7.17 7.17 0 0033.4 15a7.01 7.01 0 00-7.17 7.25 7 7 0 007.17 7.23c.75 0 1.45-.1 2.1-.28A18.93 18.93 0 0119.02 39C8.51 39 0 30.27 0 19.5S8.51 0 19.01 0c9.47 0 17.33 7.1 18.77 16.4zM8.21 25.8h1.53V14.16H8.2v-3.35h7.02c5.8 0 9.09 3.82 9.09 9.16 0 5.68-3.3 9.16-9.09 9.16H8.21V25.8zm7.02-.16c3.27 0 5.16-2.14 5.16-5.65 0-3.35-1.86-5.63-5.16-5.63H13.5v11.29h1.73zm18.16-7c2 0 3.37 1.55 3.37 3.62 0 2.04-1.37 3.59-3.37 3.59S30 24.29 30 22.25c0-2.07 1.4-3.61 3.4-3.61z" clip-rule="evenodd"/>
  <path xmlns="http://www.w3.org/2000/svg" fill="#fff" d="M41.6 19.97c0-5.36 3.78-9.5 9.24-9.5a8.75 8.75 0 018.73 6.76H55.5a4.87 4.87 0 00-4.67-2.99c-3.06 0-5.3 2.46-5.3 5.74 0 3.3 2.24 5.73 5.3 5.73 1.94 0 3.83-.97 4.67-2.96h4.06a8.72 8.72 0 01-8.73 6.76c-5.46 0-9.24-4.15-9.24-9.54zm19.74 2.28A7.01 7.01 0 0168.52 15c4.21 0 7.15 3.17 7.15 7.25a6.99 6.99 0 01-7.15 7.23 7 7 0 01-7.18-7.23zm10.55 0c0-2.07-1.38-3.61-3.37-3.61-2 0-3.4 1.54-3.4 3.61 0 2.04 1.4 3.6 3.4 3.6s3.37-1.56 3.37-3.6zm6.2-6.91h3.72v1.25h.26c.61-.89 1.7-1.6 3.27-1.6 2.83 0 4.72 2.18 4.72 4.88v9.26h-3.73V21.1c0-1.38-.92-2.4-2.22-2.4-1.35 0-2.3 1.05-2.3 2.44v8.01h-3.73v-13.8zm16.22 9.52v-6.15H92.1v-3.38h2.48v-3.77h3.47v3.77h3.57v3.38h-3.57v6.13c0 .6.23.86.84.86h2.58v3.43h-2.94c-2.7 0-4.2-1.25-4.2-4.27zm9.85-9.52h3.68v1.83h.25a3.97 3.97 0 013.45-2.18h1.07v3.8h-1.39c-2.04 0-3.37 1.3-3.37 3.87v6.47h-3.7v-13.8h.01zm9.59 6.91a7.01 7.01 0 017.17-7.25c4.21 0 7.15 3.17 7.15 7.25 0 4.09-2.96 7.23-7.15 7.23a7 7 0 01-7.17-7.23zm10.54 0c0-2.07-1.37-3.61-3.37-3.61s-3.4 1.54-3.4 3.61c0 2.04 1.4 3.6 3.4 3.6 1.99 0 3.37-1.56 3.37-3.6zm4.91 3.49h2.35V12.9h-2.34V9.5h6.08v16.23h2.34v3.4h-8.42v-3.4z"/>
</svg>