<svg xmlns="http://www.w3.org/2000/svg" width="95" height="18" viewBox="0 0 95 18">
    <g fill="#fff">
        <path d="M2.7 18A2.7 2.7 0 0 1 0 15.3V2.7A2.7 2.7 0 0 1 2.7 0h12.6A2.7 2.7 0 0 1 18 2.7v12.6a2.7 2.7 0 0 1-2.7 2.7H2.7zm1.758-6h9L8.936 5l-4.478 7zM32.5 6.535V5H26v8h2.009v-2.908h3.97v-1.52h-3.97V6.535zM34 13h2V7h-2zM40.369 7.39l-.083-.75H38.5V13h1.869V9.499C40.94 7.894 42.5 8.29 42.5 8.29V6.518a2.261 2.261 0 0 0-2.131.917v-.046zM35.25 6C34.56 6 34 5.552 34 5s.56-1 1.25-1 1.25.448 1.25 1-.56 1-1.25 1zM45.23 9.207c.172-.756.685-1.337 1.606-1.337 1.162 0 1.467 1.14 1.482 1.337H45.23zm-1.73.68C43.5 11.49 44.692 13 46.925 13c1.445 0 2.145-.484 2.667-1.012l-1.013-1.058s-.574.657-1.638.657c-.884 0-1.525-.5-1.718-1.262h4.77S50.293 6.5 46.807 6.5c-2.412 0-3.306 1.785-3.306 3.387zM61 13h2V4.5h-2zM66.818 9.75c0-.94.753-1.7 1.682-1.7a1.69 1.69 0 0 1 1.681 1.7c0 .94-.753 1.7-1.681 1.7a1.69 1.69 0 0 1-1.682-1.7zM65 9.75c0 1.795 1.567 3.25 3.5 3.25S72 11.545 72 9.75 70.433 6.5 68.5 6.5 65 7.955 65 9.75zM78.444 10.626a1.677 1.677 0 0 1-1.44.824c-.93 0-1.683-.761-1.683-1.7 0-.94.753-1.7 1.683-1.7.641 0 1.199.363 1.483.896L80 8.064c-.615-.938-1.727-1.564-2.996-1.564-1.935 0-3.504 1.455-3.504 3.25S75.069 13 77.004 13c1.246 0 2.339-.604 2.96-1.513l-1.52-.861zM86.3 13h2.2l-2.95-3.692 2.687-2.476h-2.215l-2.71 2.499V4.5H81.5V13h1.812v-1.627l.972-.897zM94.714 7.085S93.698 6.5 92.1 6.5c-1.598 0-3.016.827-3.016 2.079 0 1.252 1.259 1.686 2.105 1.817.847.131 1.947.1 1.947.696s-1.862.919-3.502-.08L89 12.353s.952.646 3.048.646C94.143 13 95 11.94 95 10.981c0-.959-.688-1.554-2.17-1.816-1.481-.263-1.862-.293-1.862-.667 0-.373.963-1.12 3.09-.06l.656-1.353zM56.665 8.443c-.257-.359-.666-.538-1.227-.538-1.082 0-1.623.662-1.623 1.986 0 .502.14.923.418 1.264.279.34.699.51 1.26.51.375 0 .679-.099.912-.295.234-.197.4-.437.497-.721a2.59 2.59 0 0 0 .147-.852c0-.544-.128-.995-.384-1.354zM53.895 4.5v2.965h.026c.487-.644 1.183-.966 2.087-.966.403 0 .784.066 1.144.198.36.132.678.332.957.599.279.266.497.6.655.999.157.4.236.861.236 1.385 0 .59-.108 1.138-.324 1.644a2.719 2.719 0 0 1-1.008 1.218c-.457.305-1.023.458-1.7.458-.977 0-1.672-.313-2.087-.939h-.026v.777H52V4.5h1.895z"/>
    </g>
</svg>
