<?xml version="1.0" encoding="utf-8"?>
<!-- Generator: Adobe Illustrator 22.1.0, SVG Export Plug-In . SVG Version: 6.00 Build 0)  -->
<svg version="1.1" id="Layer_1" xmlns="http://www.w3.org/2000/svg" xmlns:xlink="http://www.w3.org/1999/xlink" x="0px" y="0px"
	 viewBox="0 0 266 48.3" style="enable-background:new 0 0 266 48.3;" xml:space="preserve">
<style type="text/css">
	.st0{fill:#FFFFFF;}
	.st1{fill:#45F3C4;}
</style>
<g>
	<path class="st0" d="M74.9,41.1c-0.2-0.2-0.4-0.6-0.4-0.9c0-0.4,0.1-0.7,0.4-1c0.2-0.3,0.6-0.4,1-0.4c2.2,0,4.1-0.7,5.5-2.1
		c1.4-1.4,2.1-3.2,2.1-5.5V8.4c0-0.4,0.1-0.7,0.4-1c0.2-0.2,0.6-0.4,0.9-0.4c0.4,0,0.7,0.1,1,0.4c0.2,0.3,0.4,0.6,0.4,0.9v22.8
		c0,2-0.4,3.7-1.3,5.3c-0.9,1.6-2.1,2.8-3.7,3.7c-1.6,0.9-3.3,1.3-5.3,1.3C75.5,41.5,75.1,41.4,74.9,41.1z"/>
	<path class="st0" d="M108.4,18.7c1.7,1,3,2.4,3.9,4.2c0.9,1.8,1.4,3.8,1.4,6.1c0,0.4-0.1,0.7-0.4,0.9c-0.2,0.2-0.5,0.3-0.9,0.3H94
		c0.1,1.7,0.5,3.3,1.4,4.6c0.8,1.4,1.9,2.4,3.3,3.2c1.4,0.8,2.9,1.1,4.6,1.1c1.1,0,2.3-0.2,3.5-0.6c1.2-0.4,2.1-0.9,2.8-1.6
		c0.3-0.2,0.6-0.4,0.9-0.4c0.3,0,0.6,0.1,0.8,0.3c0.3,0.3,0.5,0.6,0.5,0.9c0,0.3-0.1,0.6-0.4,0.8c-0.9,0.9-2.2,1.6-3.7,2.1
		c-1.5,0.6-3,0.8-4.3,0.8c-2.3,0-4.4-0.5-6.2-1.6c-1.8-1-3.2-2.5-4.2-4.4c-1-1.9-1.5-4-1.5-6.3c0-2.4,0.5-4.5,1.4-6.4
		c1-1.9,2.3-3.3,4-4.4c1.7-1,3.7-1.6,5.9-1.6C104.8,17.2,106.7,17.7,108.4,18.7z M96.9,22c-1.6,1.5-2.5,3.5-2.8,6h17.1
		c-0.2-2.5-1.1-4.5-2.6-6c-1.6-1.5-3.5-2.3-5.9-2.3C100.4,19.7,98.4,20.4,96.9,22z"/>
	<path class="st0" d="M131.4,39.2c0.2,0.2,0.4,0.6,0.4,1c0,0.4-0.1,0.7-0.4,0.9c-0.2,0.2-0.6,0.4-1,0.4h-1c-1.6,0-3.1-0.4-4.3-1.1
		c-1.3-0.7-2.2-1.7-2.9-3c-0.7-1.3-1.1-2.7-1.1-4.3V20.7h-3.4c-0.4,0-0.6-0.1-0.9-0.3c-0.2-0.2-0.3-0.5-0.3-0.9
		c0-0.4,0.1-0.6,0.3-0.9c0.2-0.2,0.5-0.3,0.9-0.3h3.4v-7.2c0-0.4,0.1-0.7,0.4-1c0.2-0.2,0.6-0.4,0.9-0.4c0.4,0,0.7,0.1,1,0.4
		c0.2,0.2,0.4,0.6,0.4,1v7.2h5.8c0.4,0,0.6,0.1,0.9,0.3c0.2,0.2,0.3,0.5,0.3,0.9c0,0.4-0.1,0.6-0.3,0.9c-0.2,0.2-0.5,0.3-0.9,0.3
		h-5.8v12.4c0,1.7,0.5,3.1,1.6,4.2c1.1,1.1,2.4,1.6,4.1,1.6h1C130.8,38.8,131.1,38.9,131.4,39.2z"/>
	<path class="st0" d="M138,41.1c-0.2-0.2-0.4-0.6-0.4-0.9V8.4c0-0.4,0.1-0.7,0.4-1s0.6-0.4,0.9-0.4h8.8c2.1,0,4,0.5,5.7,1.4
		c1.7,0.9,3,2.2,3.9,3.9c0.9,1.7,1.4,3.6,1.4,5.7c0,2.1-0.5,4.1-1.4,5.7c-0.9,1.7-2.2,3-3.9,3.9c-1.7,0.9-3.6,1.4-5.7,1.4h-7.5v11
		c0,0.4-0.1,0.7-0.4,0.9c-0.2,0.2-0.6,0.4-1,0.4C138.6,41.5,138.3,41.4,138,41.1z M147.8,26.5c1.6,0,3.1-0.4,4.3-1.1
		c1.3-0.7,2.3-1.7,3-3c0.7-1.3,1.1-2.7,1.1-4.3c0-1.6-0.4-3.1-1.1-4.3c-0.7-1.3-1.7-2.3-3-3c-1.3-0.7-2.7-1.1-4.3-1.1h-7.5v16.8
		H147.8z"/>
	<path class="st0" d="M179.8,18.8c1.9,1.1,3.4,2.5,4.4,4.4c1.1,1.9,1.6,4,1.6,6.3v10.7c0,0.4-0.1,0.7-0.4,0.9
		c-0.2,0.2-0.6,0.4-1,0.4c-0.4,0-0.7-0.1-0.9-0.4c-0.2-0.2-0.4-0.6-0.4-0.9v-3.4c-1,1.6-2.3,2.8-4,3.7c-1.7,0.9-3.6,1.3-5.7,1.3
		c-2.3,0-4.4-0.5-6.3-1.6c-1.9-1.1-3.4-2.5-4.4-4.4c-1.1-1.9-1.6-4-1.6-6.3c0-2.3,0.5-4.4,1.6-6.3c1.1-1.9,2.5-3.4,4.4-4.4
		c1.9-1.1,4-1.6,6.3-1.6C175.9,17.2,177.9,17.7,179.8,18.8z M178.5,38c1.5-0.9,2.6-2,3.5-3.5c0.8-1.5,1.3-3.2,1.3-5
		c0-1.8-0.4-3.5-1.3-5c-0.8-1.5-2-2.7-3.5-3.5c-1.5-0.9-3.1-1.3-4.9-1.3c-1.8,0-3.5,0.4-4.9,1.3c-1.5,0.9-2.6,2-3.5,3.5
		c-0.9,1.5-1.3,3.2-1.3,5c0,1.9,0.4,3.5,1.3,5c0.9,1.5,2,2.7,3.5,3.5c1.5,0.9,3.1,1.3,4.9,1.3C175.4,39.3,177,38.9,178.5,38z"/>
	<path class="st0" d="M204.3,39.2c0.2,0.2,0.4,0.6,0.4,1c0,0.4-0.1,0.7-0.4,0.9c-0.2,0.2-0.6,0.4-1,0.4h-1c-1.6,0-3.1-0.4-4.3-1.1
		c-1.3-0.7-2.2-1.7-3-3c-0.7-1.3-1.1-2.7-1.1-4.3V20.7h-3.4c-0.4,0-0.6-0.1-0.9-0.3c-0.2-0.2-0.3-0.5-0.3-0.9c0-0.4,0.1-0.6,0.3-0.9
		c0.2-0.2,0.5-0.3,0.9-0.3h3.4v-7.2c0-0.4,0.1-0.7,0.4-1c0.2-0.2,0.6-0.4,0.9-0.4c0.4,0,0.7,0.1,1,0.4c0.2,0.2,0.4,0.6,0.4,1v7.2
		h5.8c0.4,0,0.6,0.1,0.9,0.3c0.2,0.2,0.3,0.5,0.3,0.9c0,0.4-0.1,0.6-0.3,0.9c-0.2,0.2-0.5,0.3-0.9,0.3h-5.8v12.4
		c0,1.7,0.5,3.1,1.6,4.2c1.1,1.1,2.4,1.6,4.1,1.6h1C203.7,38.8,204.1,38.9,204.3,39.2z"/>
	<path class="st0" d="M214.7,40.2c-1.8-1.1-3.3-2.5-4.3-4.4c-1-1.9-1.6-4-1.6-6.3c0-2.3,0.5-4.4,1.5-6.3c1-1.9,2.3-3.3,4.1-4.4
		c1.7-1.1,3.7-1.6,5.8-1.6c1.9,0,3.6,0.4,5.2,1.1c1.6,0.7,2.9,1.8,4.1,3.3c0.2,0.3,0.3,0.5,0.3,0.7c0,0.4-0.2,0.7-0.6,1
		c-0.2,0.2-0.4,0.3-0.7,0.3c-0.4,0-0.7-0.2-1-0.5c-1.9-2.2-4.3-3.3-7.2-3.3c-1.7,0-3.2,0.4-4.5,1.3c-1.3,0.8-2.3,2-3.1,3.5
		c-0.7,1.5-1.1,3.2-1.1,5.1c0,1.9,0.4,3.5,1.2,5c0.8,1.5,1.9,2.7,3.3,3.5c1.4,0.9,3,1.3,4.8,1.3c2.6,0,4.7-0.7,6.2-2.2
		c0.3-0.3,0.6-0.4,0.9-0.4c0.3,0,0.6,0.1,0.8,0.3c0.3,0.3,0.4,0.6,0.4,1c0,0.3-0.1,0.6-0.4,0.8c-1,0.9-2.2,1.7-3.6,2.2
		c-1.4,0.5-2.8,0.8-4.4,0.8C218.6,41.8,216.6,41.2,214.7,40.2z"/>
	<path class="st0" d="M253.1,18.4c1.7,0.9,3,2.2,4,3.9c1,1.7,1.4,3.7,1.4,6.1v11.8c0,0.4-0.1,0.7-0.4,0.9c-0.2,0.2-0.6,0.4-0.9,0.4
		c-0.4,0-0.7-0.1-0.9-0.4c-0.3-0.2-0.4-0.6-0.4-0.9V28.3c0-2.8-0.8-4.9-2.4-6.4c-1.6-1.5-3.6-2.2-6.1-2.2c-1.6,0-3,0.3-4.2,0.9
		c-1.3,0.6-2.3,1.4-3,2.5c-0.7,1.1-1.1,2.3-1.1,3.5v13.5c0,0.4-0.1,0.7-0.4,0.9c-0.2,0.2-0.6,0.4-1,0.4c-0.4,0-0.7-0.1-0.9-0.4
		c-0.2-0.2-0.4-0.6-0.4-0.9V8.4c0-0.4,0.1-0.7,0.4-1c0.2-0.2,0.6-0.4,0.9-0.4c0.4,0,0.7,0.1,1,0.4s0.4,0.6,0.4,1V21
		c1-1.2,2.2-2.2,3.7-2.9c1.4-0.7,3-1,4.7-1C249.5,17.1,251.4,17.6,253.1,18.4z"/>
	<path class="st1" d="M47.8,42h-9.8c-0.4,0-0.7-0.3-0.7-0.7v0c0-0.4,0.3-0.7,0.7-0.7h9.8c0.4,0,0.7,0.3,0.7,0.7v0
		C48.5,41.6,48.2,42,47.8,42z"/>
	<path class="st1" d="M35.1,42h-3.7c-0.4,0-0.7-0.3-0.7-0.7v0c0-0.4,0.3-0.7,0.7-0.7h3.7c0.4,0,0.7,0.3,0.7,0.7v0
		C35.8,41.6,35.5,42,35.1,42z"/>
	<path class="st1" d="M15.6,36.2h9.8c0.4,0,0.7,0.3,0.7,0.7v0c0,0.4-0.3,0.7-0.7,0.7h-9.8c-0.4,0-0.7-0.3-0.7-0.7v0
		C14.8,36.6,15.2,36.2,15.6,36.2z"/>
	<path class="st1" d="M28.2,36.2h3.7c0.4,0,0.7,0.3,0.7,0.7v0c0,0.4-0.3,0.7-0.7,0.7h-3.7c-0.4,0-0.7-0.3-0.7-0.7v0
		C27.5,36.6,27.8,36.2,28.2,36.2z"/>
	<path class="st1" d="M15.6,27.8h9.8c0.4,0,0.7,0.3,0.7,0.7v0c0,0.4-0.3,0.7-0.7,0.7h-9.8c-0.4,0-0.7-0.3-0.7-0.7v0
		C14.8,28.1,15.2,27.8,15.6,27.8z"/>
	<path class="st1" d="M28.2,27.8h3.7c0.4,0,0.7,0.3,0.7,0.7v0c0,0.4-0.3,0.7-0.7,0.7h-3.7c-0.4,0-0.7-0.3-0.7-0.7v0
		C27.5,28.1,27.8,27.8,28.2,27.8z"/>
	<path class="st1" d="M9.2,32H19c0.4,0,0.7,0.3,0.7,0.7v0c0,0.4-0.3,0.7-0.7,0.7H9.2c-0.4,0-0.7-0.3-0.7-0.7v0
		C8.5,32.4,8.8,32,9.2,32z"/>
	<path class="st1" d="M21.9,32h3.7c0.4,0,0.7,0.3,0.7,0.7v0c0,0.4-0.3,0.7-0.7,0.7h-3.7c-0.4,0-0.7-0.3-0.7-0.7v0
		C21.1,32.4,21.5,32,21.9,32z"/>
	<path class="st1" d="M3,32h3.7c0.4,0,0.7,0.3,0.7,0.7v0c0,0.4-0.3,0.7-0.7,0.7H3c-0.4,0-0.7-0.3-0.7-0.7v0C2.3,32.4,2.6,32,3,32z"
		/>
	<path class="st1" d="M22.3,23.6h-9.8c-0.4,0-0.7-0.3-0.7-0.7v0c0-0.4,0.3-0.7,0.7-0.7h9.8c0.4,0,0.7,0.3,0.7,0.7v0
		C23,23.3,22.7,23.6,22.3,23.6z"/>
	<path class="st1" d="M9.6,23.6H5.9c-0.4,0-0.7-0.3-0.7-0.7v0c0-0.4,0.3-0.7,0.7-0.7h3.7c0.4,0,0.7,0.3,0.7,0.7v0
		C10.3,23.3,10,23.6,9.6,23.6z"/>
	<path class="st0" d="M56.7,21.7c0.2-0.7,0.2-1.5,0.2-2.3c0-6.2-5.1-11.3-11.4-11.3c-3.9,0-7.5,2-9.6,5.3c-2.1-1.6-4.6-2.5-7.3-2.5
		c-5.2,0-9.8,3.4-11.3,8.2l-0.2,0.6c-0.1,0.4,0,0.8,0.4,0.9c0.4,0.1,0.8-0.1,0.9-0.4l0.6-1.6c1.6-3.8,5.4-6.4,9.6-6.4
		c2.6,0,5.1,0.9,7,2.7c0.2,0.1,0.4,0.2,0.6,0.2c0.2,0,0.4-0.2,0.5-0.4c1.7-3.3,5.1-5.3,8.8-5.3c5.5,0,9.9,4.4,9.9,9.9
		c0,0.9-0.1,1.9-0.4,2.8c-0.1,0.2,0,0.5,0.1,0.6c0.1,0.2,0.4,0.3,0.6,0.3l0.2,0l0.2,0c4.8,0,8.8,3.9,8.8,8.7c0,4.6-3.6,8.5-8.3,8.7
		l-1.3,0h0h-4.8c-0.4,0-0.7,0.3-0.7,0.7s0.3,0.7,0.7,0.7h4.8h0l1.6,0c5.3-0.4,9.5-4.8,9.5-10.1C66.4,26.4,62.1,21.9,56.7,21.7z"/>
</g>
</svg>
