<svg xmlns="http://www.w3.org/2000/svg" width="172.5" height="33.936" viewBox="0 0 172.5 33.936"><g id="Group_1991" data-name="Group 1991" transform="translate(-1045.561 1187.463)"><g id="Group_1978" data-name="Group 1978" transform="translate(1131.003 -1185.15)"><path id="Path_9219" data-name="Path 9219" d="M1267.646-1174.57q-4.133,0-4.133,2.73a2.067,2.067,0,0,0,1.024,1.858,26.563,26.563,0,0,0,4.8,1.858,13.248,13.248,0,0,1,5.29,2.749,6.481,6.481,0,0,1,1.516,4.721,7.6,7.6,0,0,1-2.464,6.143,9.641,9.641,0,0,1-6.446,2.085,35.879,35.879,0,0,1-7.243-.91l-1.365-.265.531-4.057a63.048,63.048,0,0,0,7.773.682q4.019,0,4.019-3.337a2.221,2.221,0,0,0-.929-1.9,13.148,13.148,0,0,0-3.7-1.479q-4.4-1.251-6.2-2.976a6.327,6.327,0,0,1-1.8-4.8q0-3.867,2.351-5.763a9.993,9.993,0,0,1,6.446-1.9,42.887,42.887,0,0,1,7.129.758l1.365.266-.417,4.133Q1269.845-1174.569,1267.646-1174.57Z" transform="translate(-1258.318 1179.423)" fill="#390b65"></path><path id="Path_9220" data-name="Path 9220" d="M1306.757-1161.132q2.01-2.6,6.712-2.6t6.712,2.6q2.009,2.6,2.009,7.3,0,9.973-8.721,9.972t-8.721-9.972Q1304.747-1158.533,1306.757-1161.132Zm3.925,11.584a2.929,2.929,0,0,0,2.787,1.365,2.93,2.93,0,0,0,2.787-1.365,9.005,9.005,0,0,0,.777-4.285,8.763,8.763,0,0,0-.777-4.246,2.956,2.956,0,0,0-2.787-1.327,2.955,2.955,0,0,0-2.787,1.327,8.757,8.757,0,0,0-.777,4.246A9,9,0,0,0,1310.681-1149.548Z" transform="translate(-1284.158 1170.858)" fill="#390b65"></path><path id="Path_9221" data-name="Path 9221" d="M1352.973-1153.262V-1179.8h5.081v26.542Z" transform="translate(-1310.999 1179.804)" fill="#390b65"></path><path id="Path_9222" data-name="Path 9222" d="M1371.527-1162.7h5.309l3.033,14.636h1.062l3.185-14.636h5.157l-4.55,18.959h-8.645Z" transform="translate(-1321.325 1170.286)" fill="#390b65"></path><path id="Path_9223" data-name="Path 9223" d="M1417.316-1161.132q2.01-2.6,6.712-2.6t6.711,2.6q2.009,2.6,2.01,7.3,0,9.973-8.721,9.972t-8.721-9.972Q1415.306-1158.533,1417.316-1161.132Zm3.924,11.584a2.929,2.929,0,0,0,2.787,1.365,2.929,2.929,0,0,0,2.787-1.365,9.007,9.007,0,0,0,.777-4.285,8.764,8.764,0,0,0-.777-4.246,2.955,2.955,0,0,0-2.787-1.327,2.955,2.955,0,0,0-2.787,1.327,8.758,8.758,0,0,0-.777,4.246A9,9,0,0,0,1421.24-1149.548Z" transform="translate(-1345.69 1170.858)" fill="#390b65"></path></g><g id="Group_1979" data-name="Group 1979" transform="translate(1107.906 -1187.463)"><path id="Path_9224" data-name="Path 9224" d="M1209-1158.25l-.266-4.437a6.281,6.281,0,0,1,.815-3.583,5.858,5.858,0,0,1,3.469-1.8q-2.693-.644-3.469-1.668a5.751,5.751,0,0,1-.777-3.412l.265-4.854a2.727,2.727,0,0,0-.587-1.9,3.414,3.414,0,0,0-2.219-.8v-4.323q4.284.152,6.01,1.593t1.725,5.043l-.266,4.816q0,2.579,4.247,3.564v3.944q-4.247,1.1-4.247,3.868l.266,4.588q0,3.413-1.725,4.892t-5.934,1.63v-4.323a2.853,2.853,0,0,0,2.143-.834A3.25,3.25,0,0,0,1209-1158.25Z" transform="translate(-1206.233 1185.02)" fill="#390b65"></path></g><g id="Cloud" transform="translate(1064.66 -1182.763)"><g id="Group_1981" data-name="Group 1981" transform="translate(0 0)"><path id="Path_9226" data-name="Path 9226" d="M1115.562-1152.412a6.843,6.843,0,0,1-4.82-1.976,6.69,6.69,0,0,1-2.031-4.8,6.691,6.691,0,0,1,2.031-4.8,6.845,6.845,0,0,1,3.325-1.812,8.9,8.9,0,0,1,8.887-8.612,8.805,8.805,0,0,1,5.055,1.584,8.864,8.864,0,0,1,2.329,2.375,6.746,6.746,0,0,1,3.176-.791,6.832,6.832,0,0,1,6.642,5.415,6.84,6.84,0,0,1,3.458,1.841,6.691,6.691,0,0,1,2.03,4.8,6.69,6.69,0,0,1-2.03,4.8,6.843,6.843,0,0,1-4.819,1.976Z" transform="translate(-1108.712 1174.42)" fill="#390b65"></path><path id="Path_9227" data-name="Path 9227" d="M1139.352-1152.3h-23.234a6.4,6.4,0,0,1-4.509-1.849,6.25,6.25,0,0,1-1.9-4.487,6.249,6.249,0,0,1,1.9-4.487,6.409,6.409,0,0,1,3.454-1.763c0-.029,0-.057,0-.086a8.458,8.458,0,0,1,8.449-8.448,8.363,8.363,0,0,1,4.8,1.5,8.468,8.468,0,0,1,2.435,2.608,6.284,6.284,0,0,1,3.324-.944,6.346,6.346,0,0,1,6.261,5.355,6.405,6.405,0,0,1,3.529,1.775,6.25,6.25,0,0,1,1.9,4.487,6.251,6.251,0,0,1-1.9,4.487A6.4,6.4,0,0,1,1139.352-1152.3Zm-9.959-14.993a6.3,6.3,0,0,0-5.882-4.016,6.344,6.344,0,0,0-6.336,6.336,5.681,5.681,0,0,0,.081.8l.189,1.311h-1.326a4.264,4.264,0,0,0-4.294,4.224,4.265,4.265,0,0,0,4.294,4.224h23.234a4.265,4.265,0,0,0,4.294-4.224,4.264,4.264,0,0,0-4.294-4.224H1138.3v-1.056a4.229,4.229,0,0,0-4.224-4.224,4.2,4.2,0,0,0-2.956,1.213" transform="translate(-1109.269 1173.864)" fill="#390b65"></path></g></g><g id="Group_1982" data-name="Group 1982" transform="translate(1045.561 -1187.463)"><path id="Path_9228" data-name="Path 9228" d="M1038.472-1178.005l.265,4.854a5.757,5.757,0,0,1-.777,3.412q-.778,1.024-3.469,1.668a5.862,5.862,0,0,1,3.469,1.8,6.281,6.281,0,0,1,.815,3.583l-.266,4.437a3.244,3.244,0,0,0,.55,2.009,2.852,2.852,0,0,0,2.142.834v4.323q-4.208-.152-5.934-1.63t-1.725-4.892l.266-4.588q0-2.768-4.247-3.868v-3.944q4.246-.985,4.247-3.564l-.266-4.816q0-3.6,1.725-5.043t6.01-1.593v4.323a3.411,3.411,0,0,0-2.218.8A2.726,2.726,0,0,0,1038.472-1178.005Z" transform="translate(-1029.561 1185.02)" fill="#390b65"></path></g></g></svg>