<?xml version="1.0" encoding="UTF-8"?> <svg xmlns="http://www.w3.org/2000/svg" width="349" height="172" viewBox="0 0 349 172" fill="none"><path d="M105.612 100.113C105.847 100.624 106.579 100.6 106.779 100.076L126.854 47.7372L156.981 47.5697L109.567 170.845C109.475 171.09 109.237 171.252 108.977 171.252H107.826L82.0236 113.917C80.9263 111.479 77.4917 111.409 76.2961 113.8L48.2139 169.966C47.9665 170.459 47.253 170.424 47.0532 169.91L0 47.5697H31.7134L51.7879 100.073C51.9877 100.598 52.7235 100.622 52.9582 100.112L76.4007 49.0847C77.5329 46.6215 81.0341 46.6215 82.1662 49.0847L105.612 100.113Z" fill="black"></path><path d="M321.891 0C321.891 0 320.381 13.8657 314.591 19.6556C308.8 25.4459 294.935 26.9564 294.935 26.9564C294.935 26.9564 308.8 28.4669 314.591 34.2571C321.891 41.5575 321.891 53.9128 321.891 53.9128C321.891 53.9128 323.401 40.047 329.191 34.2571C334.982 28.4669 348.847 26.9564 348.847 26.9564C348.847 26.9564 334.982 25.4459 329.191 19.6556C323.401 13.8657 321.891 0 321.891 0Z" fill="black"></path><path d="M164.903 48.2388H195.031V171.252H164.903V48.2388Z" fill="black"></path><path d="M249.379 79.9934C249.908 78.9389 249.141 77.697 247.961 77.697H206.131V48.2388H300.19C301.392 48.2388 302.156 49.5263 301.582 50.583L251.808 141.951C251.234 143.008 251.998 144.295 253.2 144.295H302.857V171.252H206.185C205.005 171.252 204.238 170.009 204.767 168.955L249.379 79.9934Z" fill="black"></path></svg> 